<?xml version="1.0" encoding="utf-8"?>
<!-- Generator: Adobe Illustrator 25.2.1, SVG Export Plug-In . SVG Version: 6.00 Build 0)  -->
<svg version="1.1" id="Шар_1" xmlns="http://www.w3.org/2000/svg" xmlns:xlink="http://www.w3.org/1999/xlink" x="0px" y="0px"
	 viewBox="0 0 280 194.2" style="enable-background:new 0 0 280 194.2;" xml:space="preserve">
<style type="text/css">
	.st0{fill:#FFFFFF;stroke:#000000;stroke-miterlimit:10;}
	.st1{fill:#CBBBA0;}
	.st2{fill:#ECA1A6;}
</style>
<path class="st0" d="M294.2,98.2"/>
<path class="st1" d="M25.6,91.8c-3.3-4.3-4.3-5.9-6.7-8.5c-5.4-5.8-13.2-11.1-14.6-9.8c-1.2,1.1,2.6,5.6,9.1,19.5
	c3.5,7.4,4.4,10.4,6.3,14.2c1,2.1,2.1,3.8,2.5,4.6c2.7,4.7,5.6,9.2,7.1,11.1c1.8,2.4,7.3,9.7,19,14.5c10.2,4.7,24.4,10.8,50,18.3
	c0,0,7.9,3.3,9.9,5c0.4,0.3,5.3,4.2,7.7,10c4.1,10.2-0.1,19.3,2.4,20.2c3.1,1.1,13.7-11,14.1-25.1c0.3-12.4-7.2-21.7-9.8-24.9
	c-6.1-7.6-12.6-12.2-20.1-17.1c-7.1-4.7-13.9-7.8-15.1-8.3c-8.6-4-9.4-3.1-13.4-5.7C63.8,103.3,62.5,93.4,59.6,94
	c-2.8,0.6-5.3,10.2-1.8,17.8c4.7,10.3,18.5,13.2,18.1,14.2c-0.3,0.7-6.1-0.4-13-3.2c-6.4-2.7-16.2-6.7-25.2-16.1
	C33.8,102.8,30,97.8,25.6,91.8z"/>
<path class="st0" d="M238.2,218.7"/>
<path class="st0" d="M85.6,207.8"/>
<path class="st0" d="M43.4,173.3"/>
<path class="st0" d="M40.1,194.2"/>
<path class="st0" d="M57.6,235.3"/>
<path class="st0" d="M159.5,174.9"/>
<path class="st1" d="M252.4,91.8c3.3-4.3,4.3-5.9,6.7-8.5c5.4-5.8,13.2-11.1,14.6-9.8c1.2,1.1-2.6,5.6-9.1,19.5
	c-3.5,7.4-4.4,10.4-6.3,14.2c-1,2.1-2.1,3.8-2.5,4.6c-2.7,4.7-5.6,9.2-7,11.1c-1.8,2.4-7.3,9.7-19,14.5c-10.2,4.7-24.4,10.8-50,18.3
	c0,0-7.9,3.3-9.9,5c-0.4,0.3-5.3,4.2-7.7,10c-4.1,10.2,0.1,19.3-2.4,20.2c-3.1,1.1-13.7-11-14.1-25.1c-0.3-12.4,7.2-21.7,9.8-24.9
	c6.1-7.6,12.6-12.2,20.1-17.1c7.1-4.7,13.9-7.8,15-8.3c8.6-4,9.4-3.1,13.4-5.7c10.1-6.6,11.3-16.4,14.3-15.8
	c2.8,0.6,5.3,10.2,1.8,17.8c-4.7,10.3-18.5,13.2-18.1,14.2c0.3,0.7,6.1-0.4,13-3.2c6.4-2.7,16.2-6.7,25.2-16.1
	C244.2,102.8,247.9,97.8,252.4,91.8z"/>
<path class="st0" d="M265.9,30.5"/>
<path class="st2" d="M155.2,10.2c7.1-5.8,15.9-5.7,19.5-5.7c14.2,0.1,23.6,9,25.2,10.6c8.6,8.5,10.3,18.6,11.4,25.2
	c2,12.1-0.7,21.4-1.2,23.2c-2.4,8.1-6.3,13.2-12.2,21.2c-1.2,1.6-5.9,7.8-13.4,15c-7.4,7.2-13.7,11.6-22,17.5
	c-10.5,7.5-22.4,15-22.4,15s-16.3-10.3-19.9-13c-3.9-2.9-6.5-5-11.4-9c-3.5-2.8-5.3-4.3-6.9-5.7c-0.8-0.7-1.9-1.7-8.1-7.7
	c-5.7-5.5-6.4-6.3-7.3-7.3c-1.6-1.8-2.8-3.5-5.3-6.9c-3.1-4.2-4.6-6.3-5.7-8.5c-1.2-2.5-1.2-3.3-2.9-6.5C71.4,65,69.2,57.1,69,53.7
	c-0.4-5.7-0.7-7.2-0.8-9.8c-0.1-1.9-0.2-7.9,2-14.2c2.7-7.5,7.7-12.1,10.2-14.2c1.4-1.2,8.2-7.1,19.1-9.4c4-0.8,11.7-2.4,20.3,0.8
	c3.2,1.2,7,3.5,11,6.9c3.9,3.4,2.1,1.2,3.9,3.4c5.4,6.4,6,5.4,6,5.4C140.7,22.6,148.4,15.7,155.2,10.2z"/>
</svg>
